<svg width="42" height="49" viewBox="-3.5 0 49 49" fill="none" xmlns="http://www.w3.org/2000/svg">
<path d="M9.86401 12.8054L9.87346 12.793L9.88275 12.7804C11.549 10.5346 13.7056 8.93882 16.4139 7.96844C17.7544 7.48817 18.755 6.22579 18.7956 4.70053C18.8435 3.97885 19.0842 3.4864 19.4885 3.08123C19.8644 2.70448 20.3077 2.5 21 2.5C21.6923 2.5 22.1356 2.70448 22.5115 3.08123C22.9158 3.4864 23.1565 3.97885 23.2044 4.70053C23.245 6.22579 24.2456 7.48817 25.5861 7.96844C28.2944 8.93882 30.451 10.5346 32.1172 12.7804L32.1265 12.793L32.136 12.8054C33.8959 15.1166 34.7969 17.8275 34.7969 21.047V31.7838C34.7969 34.5619 35.9148 37.2238 37.8996 39.1668L38.3359 39.594H3.66406L4.10041 39.1668C6.08519 37.2238 7.20312 34.5619 7.20312 31.7838V21.047C7.20312 17.8275 8.10409 15.1166 9.86401 12.8054Z" stroke="black" stroke-width="5"/>
<path d="M20.8047 48.604C22.1172 48.604 23.211 48.1655 24.086 47.2886C25.4919 45.8795 23.835 44 21.8468 44H19.7627C17.7744 44 16.1176 45.8795 17.5235 47.2886C18.3985 48.1655 19.4922 48.604 20.8047 48.604Z" fill="black"/>
</svg>
