<svg width="42" height="42" viewBox="0 0 42 42" fill="none" xmlns="http://www.w3.org/2000/svg">
<path d="M24.7216 15.0966C25.3236 14.4914 26.3026 14.4901 26.9062 15.0937C27.5099 15.6974 27.5086 16.6764 26.9034 17.2784L7.21164 36.8687C6.93599 37.1429 6.56298 37.2969 6.17415 37.2969C5.36173 37.2969 4.70312 36.6383 4.70312 35.8258C4.70312 35.437 4.85707 35.064 5.1313 34.7884L24.7216 15.0966ZM34.2344 0C33.5781 0 33.0312 0.21875 32.5938 0.65625L29.7423 3.50766C28.9613 4.28871 28.9613 5.55504 29.7423 6.33609L35.6639 12.2577C36.445 13.0387 37.7113 13.0387 38.4923 12.2577L41.3438 9.40625C41.7812 8.96875 42 8.42188 42 7.76562C42 7.10937 41.7812 6.5625 41.3438 6.125L35.875 0.65625C35.3646 0.21875 34.8177 0 34.2344 0ZM27.2267 8.85171C26.4457 8.07067 25.1793 8.07066 24.3983 8.85171L0.585786 32.6642C0.210713 33.0393 0 33.548 0 34.0784V40C0 41.1046 0.895431 42 2 42H7.92157C8.45201 42 8.96071 41.7893 9.33579 41.4142L33.1483 17.6017C33.9293 16.8207 33.9293 15.5543 33.1483 14.7733L27.2267 8.85171Z" fill="black"/>
</svg>
