<svg width="30" height="30" viewBox="0 0 30 30" fill="none" xmlns="http://www.w3.org/2000/svg">
<path d="M11.1796 0C14.3432 0.0536193 16.9705 1.15282 19.0617 3.29759C21.1528 5.38874 22.2252 8.01609 22.2788 11.1796C22.2788 12.5737 22.0375 13.8874 21.555 15.1206C21.1787 16.2024 20.6374 17.181 19.9311 18.0565C19.7639 18.2637 19.7717 18.5652 19.9599 18.7535V18.7535C20.0543 18.8478 20.1822 18.9008 20.3155 18.9008H20.7909C21.2286 18.9008 21.6484 19.0747 21.9579 19.3842L28.7131 26.1394C29.4239 26.8501 29.4239 28.0024 28.7131 28.7131V28.7131C28.0024 29.4239 26.8501 29.4239 26.1394 28.7131L19.3842 21.9579C19.0747 21.6484 18.9008 21.2286 18.9008 20.7909V20.3155C18.9008 20.1822 18.8478 20.0543 18.7535 19.9599V19.9599C18.5652 19.7717 18.2636 19.7638 18.0571 19.9319C17.1814 20.6442 16.2026 21.212 15.1206 21.6354C13.8874 22.0643 12.5737 22.2788 11.1796 22.2788C8.01609 22.2252 5.36193 21.1528 3.21716 19.0617C1.12601 16.9705 0.0536193 14.3432 0 11.1796C0.0536193 8.01609 1.12601 5.38874 3.21716 3.29759C5.36193 1.15282 8.01609 0.0536193 11.1796 0ZM11.1796 3.45845C8.98123 3.51206 7.15818 4.26273 5.71046 5.71046C4.26273 7.15818 3.53887 8.98123 3.53887 11.1796C3.53887 13.378 4.26273 15.2011 5.71046 16.6488C7.15818 18.0965 8.98123 18.8204 11.1796 18.8204C13.378 18.8204 15.2011 18.0965 16.6488 16.6488C18.0965 15.2011 18.8204 13.378 18.8204 11.1796C18.8204 8.98123 18.0965 7.15818 16.6488 5.71046C15.2011 4.26273 13.378 3.51206 11.1796 3.45845Z" fill="white"/>
</svg>
