<svg width="28" height="27" viewBox="0 0 28 27" fill="none" xmlns="http://www.w3.org/2000/svg">
<path d="M10.558 2.50195C11.6414 -0.833986 16.3586 -0.833983 17.442 2.50196L18.2659 5.03877C18.7504 6.53065 20.14 7.54072 21.7079 7.54072H24.3739C27.8799 7.54072 29.3376 12.0292 26.5012 14.0909L24.3443 15.6588C23.0758 16.5808 22.5451 18.2151 23.0296 19.707L23.8534 22.2438C24.9368 25.5798 21.1205 28.3538 18.2842 26.2921L16.1273 24.7242C14.8588 23.8022 13.1412 23.8022 11.8727 24.7242L9.71583 26.2921C6.87947 28.3538 3.06317 25.5798 4.14656 22.2438L4.97043 19.707C5.45494 18.2151 4.92416 16.5808 3.6557 15.6588L1.49879 14.0909C-1.33756 12.0292 0.120133 7.54072 3.62606 7.54072H6.29215C7.86005 7.54072 9.24964 6.53065 9.73414 5.03877L10.558 2.50195Z" fill="#F4516F"/>
</svg>
