<svg width="44" height="50" viewBox="0 0 44 50" fill="none" xmlns="http://www.w3.org/2000/svg">
<path d="M31.3767 44.168C30.7244 42.0806 28.7912 40.6593 26.6043 40.6593H17.4512C15.2581 40.6593 13.321 42.0885 12.6739 44.184L11.9662 46.4754C11.3191 48.5708 9.38198 50 7.18886 50H5.15946C1.6838 50 -0.731554 46.5415 0.465221 43.2783L15.1355 3.27835C15.8578 1.30913 17.7323 0 19.8298 0H24.1874C26.2805 0 28.152 1.30368 28.8775 3.267L43.6577 43.267C44.8642 46.532 42.4484 50 38.9677 50H36.8751C34.6882 50 32.755 48.5788 32.1027 46.4914L31.3767 44.168ZM18.2317 26.223C17.4446 28.771 19.3494 31.353 22.0162 31.353C24.686 31.353 26.5912 28.7656 25.7986 26.2162C24.643 22.4992 19.3805 22.504 18.2317 26.223Z" fill="#F4516F"/>
</svg>
