<svg width="281" height="77" viewBox="0 0 281 77" fill="none" xmlns="http://www.w3.org/2000/svg">
<path d="M140.832 64.92L142.2 63.984L138.384 59.448C140.976 56.784 142.488 54.48 142.488 49.944V26.4C142.488 16.824 132.984 12 123.552 12C114.048 12 104.616 16.824 104.616 26.4V49.944C104.616 59.52 114.048 64.416 123.552 64.416C128.088 64.416 133.056 63.264 137.088 60.528L140.832 64.92ZM132.984 52.464L131.616 53.472L136.08 59.088C132.264 61.536 127.728 62.688 123.552 62.688C114.912 62.688 106.416 58.224 106.416 49.944V26.4C106.416 17.616 114.984 13.8 123.552 13.728C132.12 13.728 140.688 17.904 140.688 26.4V49.944C140.688 52.68 139.968 55.776 137.232 58.008L132.984 52.464Z"/>
<path d="M157.582 12.72H154.774V63.696H156.646L156.718 15.024L186.598 63.696H189.694V12.72H187.894V61.968L157.582 12.72Z"/>
<path d="M206.391 45.48H229.575L236.343 63.696H238.287L219.423 12.72H216.543L197.679 63.696H199.623L206.391 45.48ZM218.127 14.448L228.927 43.68H207.039L217.839 14.448H218.127Z"/>
<path d="M248.051 12.72H246.251V63.696H248.051V46.2L255.683 38.568L278.435 63.696H280.523L256.979 37.272L280.523 12.72H278.219L248.051 43.68V12.72Z"/>
<path fill-rule="evenodd" clip-rule="evenodd" d="M5.30567 0H50.9344C53.8646 0 56.24 2.36935 56.24 5.2921V39.7423C56.24 42.1375 57.853 44.2341 60.1725 44.8541L72.8751 48.249C75.7055 49.0055 77.3852 51.9073 76.6268 54.7305L75.9402 57.2864C75.1818 60.1095 72.2725 61.7849 69.4421 61.0284L62.9189 59.285C59.5492 58.3844 56.24 60.9171 56.24 64.3968V71.7079C56.24 74.6307 53.8646 77 50.9344 77H48.2815C45.3513 77 42.9759 74.6307 42.9759 71.7079V58.0157C42.9759 55.6205 41.363 53.5239 39.0434 52.904L19.9431 47.7991C16.5733 46.8985 13.2642 49.4312 13.2642 52.9109V71.7079C13.2642 74.6306 10.8888 77 7.95851 77H5.30567C2.37543 77 0 74.6306 0 71.7079V5.2921C0 2.36935 2.37543 0 5.30567 0ZM42.9759 23.2302C42.9759 17.7074 38.4987 13.2302 32.9759 13.2302H23.2642C17.7413 13.2302 13.2642 17.7074 13.2642 23.2302V24.6388C13.2642 29.1672 16.3073 33.1305 20.6822 34.2997L30.3939 36.8953C36.7436 38.5924 42.9759 33.807 42.9759 27.2344V23.2302Z"/>
</svg>
